INCLUDES DIRECTORS COMMENTARY


RUNTIME: 2 Hours 43 Minutes



Format                                   : Matroska
Format version                           : Version 2
File size                                : 3.98 GiB
Duration                                 : 2h 43mn
Overall bit rate                         : 3 490 Kbps
Writing application                      : HandBrake 0.9.8
Writing library                          : libmkv 0.6.5

Video
ID                                       : 1
Format                                   : AVC
Format/Info                              : Advanced Video Codec
Format profile                           : Main@L4.0
Format settings, CABAC                   : Yes
Format settings, ReFrames                : 4 frames
Codec ID                                 : V_MPEG4/ISO/AVC
Duration                                 : 2h 43mn
Bit rate                                 : 2 333 Kbps
Width                                    : 1 920 pixels
Height                                   : 1 080 pixels
Display aspect ratio                     : 16:9
Frame rate mode                          : Constant
Frame rate                               : 25.000 fps
Color space                              : YUV
Chroma subsampling                       : 4:2:0
Bit depth                                : 8 bits
Scan type                                : Progressive
Bits/(Pixel*Frame)                       : 0.045
Stream size                              : 2.66 GiB (67%)
Writing library                          : x264 core 120
Encoding settings                        : cabac=1 / ref=1 / deblock=1:0:0 / 
Language                                 : English
Default                                  : Yes
Forced                                   : No
Color primaries                          : BT.709
Transfer characteristics                 : BT.709
Matrix coefficients                      : BT.709

Audio #1
ID                                       : 2
Format                                   : AC-3
Format/Info                              : Audio Coding 3
Mode extension                           : CM (complete main)
Format settings, Endianness              : Big
Codec ID                                 : A_AC3
Duration                                 : 2h 43mn
Bit rate mode                            : Constant
Bit rate                                 : 640 Kbps
Channel(s)                               : 6 channels
Channel positions                        : Front: L C R, Side: L R, LFE
Sampling rate                            : 48.0 KHz
Bit depth                                : 16 bits
Compression mode                         : Lossy
Stream size                              : 748 MiB (18%)
Language                                 : English
Default                                  : Yes
Forced                                   : No
 
http://s19.postimage.org/6fchzh8pf/image.jpg
 
http://s19.postimage.org/kn26o4leb/image.jpg
 
http://s19.postimage.org/kn26o4leb/image.jpg
 
http://s19.postimage.org/mb1c2rz9v/image.jpg


The Story of how world series cricket got started